<svg xmlns="http://www.w3.org/2000/svg" viewBox="0 0 750 500"><g id="freepik--background-simple--inject-191"><path d="M685.26,145.08c-7.86-6.17-16.23-11.92-24.75-17.6A1044.57,1044.57,0,0,0,508.22,44c-16.07-7.16-35.73-17.28-53.86-16.67C408.63,28.8,44.33,150,38.23,175.9s23.63,226.35,73.93,246.93,580-29,588.37-41.16S737.87,228.48,728,200.28C719.63,176.56,703.85,159.67,685.26,145.08Z" style="fill:#92E3A9"></path><path d="M685.26,145.08c-7.86-6.17-16.23-11.92-24.75-17.6A1044.57,1044.57,0,0,0,508.22,44c-16.07-7.16-35.73-17.28-53.86-16.67C408.63,28.8,44.33,150,38.23,175.9s23.63,226.35,73.93,246.93,580-29,588.37-41.16S737.87,228.48,728,200.28C719.63,176.56,703.85,159.67,685.26,145.08Z" style="fill:#fff;opacity:0.7000000000000001"></path></g><g id="freepik--speech-bubble--inject-191"><path d="M429.73,83.38l-67.21,8.76A10.13,10.13,0,0,0,354,104.45l10.66,46.39a10.12,10.12,0,0,0,11.27,7.76l62.78-8.8a10.13,10.13,0,0,0,8.68-11L446,124.07l16-3-17.53-12.19L441,91.43A10.13,10.13,0,0,0,429.73,83.38Z" style="fill:#263238;stroke:#263238;stroke-linecap:round;stroke-linejoin:round"></path><path d="M427.45,78l-67.21,8.77a10.12,10.12,0,0,0-8.56,12.3l10.66,46.4a10.13,10.13,0,0,0,11.28,7.76l62.78-8.8a10.14,10.14,0,0,0,8.67-11l-1.38-14.76,16-3-17.53-12.2-3.48-17.4A10.11,10.11,0,0,0,427.45,78Z" style="fill:#fff;stroke:#263238;stroke-linecap:round;stroke-linejoin:round"></path><path d="M373.21,117.28a6.67,6.67,0,0,1-3.72-.07,4.63,4.63,0,0,1-2.35-1.95,11.08,11.08,0,0,1-1.28-3.38l-1.59-7.23a11.34,11.34,0,0,1-.26-3.71,4.45,4.45,0,0,1,1.32-2.72,6.77,6.77,0,0,1,3.36-1.6,7,7,0,0,1,3.55,0,4,4,0,0,1,2.19,1.66,8.54,8.54,0,0,1,1.17,2.94l.37,1.69-4,.87-.42-1.88a10,10,0,0,0-.36-1.29,1.79,1.79,0,0,0-.62-.91,1.54,1.54,0,0,0-1.24-.13,1.61,1.61,0,0,0-1.11.66,2,2,0,0,0-.25,1.13,10.09,10.09,0,0,0,.21,1.43l2,9.15a7.16,7.16,0,0,0,.47,1.44,1.71,1.71,0,0,0,.73.86,1.63,1.63,0,0,0,1.18.09,1.45,1.45,0,0,0,1.05-.63,2,2,0,0,0,.19-1.12,10.18,10.18,0,0,0-.21-1.39l-.43-2,4-.87.36,1.66a9.29,9.29,0,0,1,.19,3.23,4.3,4.3,0,0,1-1.25,2.51A6.53,6.53,0,0,1,373.21,117.28Z" style="fill:#263238"></path><path d="M381.35,115.21,377,95.08l4.1-.9,1.81,8.27,3.55-.77L384.6,93.4l4.1-.9,4.41,20.13-4.1.9-2-8.92-3.55.78,1.95,8.92Z" style="fill:#263238"></path><path d="M396.21,112l-4.4-20.13,8.77-1.92.62,2.83-4.67,1,1.17,5.34,3.6-.79.63,2.86-3.61.79,1.39,6.31,4.72-1L405,110Z" style="fill:#263238"></path><path d="M407.1,109.57l-4.41-20.13,8.78-1.92.62,2.83-4.68,1,1.17,5.35,3.61-.79.62,2.86-3.6.79,1.38,6.31,4.72-1,.61,2.79Z" style="fill:#263238"></path><path d="M418,107.19l-4.41-20.13,5.22-1.15a11.62,11.62,0,0,1,3.59-.3A4.1,4.1,0,0,1,425,86.75a5.86,5.86,0,0,1,1.49,3.06,10.55,10.55,0,0,1,.27,2.24,4.37,4.37,0,0,1-.38,1.83,3.73,3.73,0,0,1-1.25,1.46l4.93,9.21-4.2.92-4.31-8.62-1.44.32,2,9.12Zm1.57-12.46,1.19-.26a3.18,3.18,0,0,0,1.49-.67,1.8,1.8,0,0,0,.6-1.15,5,5,0,0,0-.12-1.68,3.86,3.86,0,0,0-1-2,2.21,2.21,0,0,0-2.06-.31l-1.39.3Z" style="fill:#263238"></path><path d="M391.87,143.18a7,7,0,0,1-3.73,0,4.25,4.25,0,0,1-2.27-1.87,11.25,11.25,0,0,1-1.3-3.48l-3-13.77,4.05-.89,3.14,14.34a10.09,10.09,0,0,0,.43,1.45,2.33,2.33,0,0,0,.75,1.05,1.48,1.48,0,0,0,1.28.19,1.52,1.52,0,0,0,1.11-.71,2.25,2.25,0,0,0,.23-1.27,10.93,10.93,0,0,0-.22-1.49l-3.14-14.34,4.05-.89,3,13.77a11.41,11.41,0,0,1,.28,3.7,4.22,4.22,0,0,1-1.28,2.65A7,7,0,0,1,391.87,143.18Z" style="fill:#263238"></path><path d="M400.5,141l-4.4-20.13,6.38-1.4a5.89,5.89,0,0,1,3.11,0,4.33,4.33,0,0,1,2.14,1.61,8.08,8.08,0,0,1,1.24,3,6.69,6.69,0,0,1,0,3.54,4.08,4.08,0,0,1-1.63,2.16,7.84,7.84,0,0,1-2.79,1.15l-1.87.41,1.91,8.72Zm1.56-12.51,1.44-.31a2.8,2.8,0,0,0,1.32-.59,1.47,1.47,0,0,0,.46-1,6,6,0,0,0-.17-1.63,7.94,7.94,0,0,0-.48-1.51,1.64,1.64,0,0,0-.82-.84,2.62,2.62,0,0,0-1.57,0l-1.41.31Z" style="fill:#263238"></path><path d="M413.72,138.1l-.77-3.55,3.58-.78.77,3.55Zm.07-5.19L409.38,118l3.75-.82,2,15.43Z" style="fill:#263238"></path><path d="M419.86,136.76l-.77-3.56,3.57-.78.78,3.56Zm.06-5.2-4.4-14.89,3.75-.82,2,15.42Z" style="fill:#263238"></path></g><g id="freepik--character-2--inject-191"><path d="M445.23,178.86s5.58,3.41,7.29,6.07,7.33,12.35,7.33,12.35S485.21,207.7,497.27,210c6.92,1.33,19.87,14.25,20.82,16.72s-3.23,7.21-4.74,9.3a8.5,8.5,0,0,1-6.27,3.22c-1.9,0-10.47-5.2-25.6-14.43-9.6-5.86-24.6-17.32-24.6-17.32s-9.75-1.11-12.22-1.87a34.13,34.13,0,0,1-6.64-3.42c-.57-.38-1.14-19-.38-19.93a9.58,9.58,0,0,1,4.18-2.09A21.35,21.35,0,0,0,445.23,178.86Z" style="fill:#b5b5b5;stroke:#263238;stroke-linecap:round;stroke-linejoin:round"></path><path d="M443.19,179.58s-5.53-1.53-6.14-.92-3.38,8.91-3.48,10.34,3.79,2.66,3.79,2.66,5.11.82,5.32.41S443.19,179.58,443.19,179.58Z" style="fill:#b5b5b5;stroke:#263238;stroke-linecap:round;stroke-linejoin:round"></path><path d="M444.42,185.42s-8.19-2-8.6-1.54a45.07,45.07,0,0,0-2.56,7.88c-.2,1.54,3.07,2.87,4.81,3.48s3.69.61,4.51-.1S444.42,185.42,444.42,185.42Z" style="fill:#b5b5b5;stroke:#263238;stroke-linecap:round;stroke-linejoin:round"></path><path d="M443.71,188.48s-8.39-.2-9,.52-2.25,6.75-2,7.16,9,2.15,10.13,2.25S445.35,189,443.71,188.48Z" style="fill:#b5b5b5;stroke:#263238;stroke-linecap:round;stroke-linejoin:round"></path><path d="M440,203.53s-5.53-2.36-6.14-3.48-1.43-2.15-1.33-2.76,5.38-5.4,5.38-5.4,6.22,3.2,6.63,4,1,1.48.27,2.71S443.7,200,442.88,200a8.45,8.45,0,0,1-2.44-.83" style="fill:#b5b5b5;stroke:#263238;stroke-linecap:round;stroke-linejoin:round"></path><path d="M445.44,193.09a12.31,12.31,0,0,0,7.06,3.58" style="fill:#b5b5b5;stroke:#263238;stroke-linecap:round;stroke-linejoin:round"></path><path d="M446.75,183.61s-1.33,7.59-1.9,8.35-2.65.95-3.79.38.95-13.67.95-13.67a1.81,1.81,0,0,1,1.71-.75c1.32,0,4.36,2.84,4.36,2.84" style="fill:#b5b5b5;stroke:#263238;stroke-linecap:round;stroke-linejoin:round"></path><line x1="440.34" y1="197.81" x2="439.54" y2="199.22" style="fill:#b5b5b5;stroke:#263238;stroke-linecap:round;stroke-linejoin:round"></line><path d="M495.06,172l5.25,28.62L495.58,204l.79,4.73c0,2.62-3.41-1.58-1.84,1s22.17,18.26,24.79,15.9,3.85-15.39,3.85-15.39Z" style="fill:#92E3A9;stroke:#263238;stroke-linecap:round;stroke-linejoin:round"></path><path d="M500.17,421.82l-10.37,14s-21.36,10-22.15,10.84-1,3.66-.64,4.46,3.19,2.39,12.11,3,16.58,1.11,22.32,0,15.46-2.55,21.36-2.55,8.61-1.12,8.93-3.19-2.87-21.52-2.87-21.52Z" style="fill:#fff;stroke:#263238;stroke-linecap:round;stroke-linejoin:round"></path><path d="M531.73,448.44a27.5,27.5,0,0,0-.35-4.5l-13.52,2.43S499.69,451,488.37,451A103.53,103.53,0,0,1,467,448.34a6.75,6.75,0,0,0,0,2.81c.32.8,3.19,2.39,12.11,3s16.58,1.11,22.32,0,15.46-2.55,21.36-2.55S531.41,450.51,531.73,448.44Z" style="fill:#fff;stroke:#263238;stroke-linecap:round;stroke-linejoin:round"></path><path d="M589.27,435.37s-3,11.32-3,12.59-1.75,5.1-5.57,9.25-5.11,7-4.79,8.29,2.55,5.42,17.06,6.37,23.27-3,25.35-7-4.12-29.73-4.12-29.73-9.59-6.94-13.58-8.21S589.27,435.37,589.27,435.37Z" style="fill:#fff;stroke:#263238;stroke-linecap:round;stroke-linejoin:round"></path><path d="M618.29,464.86c.48-.93.51-3.06.28-5.76a37.82,37.82,0,0,1-20.37,8.47c-11.08,1.19-18.68-2.51-21.82-4.46a4,4,0,0,0-.5,2.39c.32,1.27,2.55,5.42,17.06,6.37S616.21,468.84,618.29,464.86Z" style="fill:#fff;stroke:#263238;stroke-linecap:round;stroke-linejoin:round"></path><path d="M521.67,261.89s-16.55,30-20.44,36c-2.73,4.24-19.85,40.24-19.85,44.05s19.85,72.7,19.85,72.7l-4.51,5.55,1.74,4.85s8,2.42,12.81,3.46S530,432,530,432s-.69-11.44-1-14.21-4.5-6.58-4.5-8-9-65.48-9-65.48L549,298.27s1.73,45.74,2.08,48.51,33.61,71,33.61,71-2.78,3.47-2.43,5.2,6.93,13.51,6.93,13.51,5.89-5.54,8-5.54,17,4.16,17,4.16a102.13,102.13,0,0,0-2.42-10.4c-1.39-4.5,1.59-2.42-.49-6.93s-22.41-74.5-22.41-74.5,7.31-68.24,8.69-73.44,1.39-18,1.39-18l-75.53,2.77Z" style="fill:#263238;stroke:#263238;stroke-linecap:round;stroke-linejoin:round"></path><path d="M507.91,145.16S491.69,158,491,162.34c-1.2,7.35,9.1,35.39,17.19,47a263.6,263.6,0,0,1,14.41,23.51s-1.26,2.27-1,3.54,2.27,6.06,2.27,6.06l-5.56,24.27s23.48,14.84,44.21,14.59,38.39-12.17,38.89-13.19-6-41.59-6.51-44.63-18.7-75.83-21-80.38-11.12-8.59-16.18-8.59-26.79,3.79-27.55,3.79S507.91,145.16,507.91,145.16Z" style="fill:#92E3A9;stroke:#263238;stroke-linecap:round;stroke-linejoin:round"></path><path d="M529.82,234.75s18.47,10.56,38.08,10.56" style="fill:none;stroke:#263238;stroke-linecap:round;stroke-linejoin:round"></path><path d="M575.06,250.86q2.22-.08,4.53-.27" style="fill:none;stroke:#263238;stroke-linecap:round;stroke-linejoin:round"></path><path d="M542.26,244.93s10.45,5,25.89,5.84" style="fill:none;stroke:#263238;stroke-linecap:round;stroke-linejoin:round"></path><path d="M487.94,80a27.84,27.84,0,0,0-7.06,14.93c-1.08,9,3,17.64,2.18,21.17s-6,7.33-6,9.23,4.62,3.8,4.62,3.8,6,14.79,9,15.61,11.4-4.07,11.4-4.07l4.61,10.72s10.59,23.61,13.84,24.7S533,138.34,533,138.34l-6.78-14.93s11.36-13,10.82-23.87-9.23-22.26-17.91-25S496.09,72.11,487.94,80Z" style="fill:#b5b5b5;stroke:#263238;stroke-linecap:round;stroke-linejoin:round"></path><ellipse cx="488.63" cy="114.39" rx="1.47" ry="2.95" style="fill:#263238"></ellipse><path d="M485.69,107.78s2.25-2.83,6.32-.11" style="fill:none;stroke:#263238;stroke-linecap:round;stroke-linejoin:round;stroke-width:2px"></path><path d="M488.48,130.2s6-1.36,7.61-5.7c0,0,1.35,5.7-1.63,8.41S488.48,130.2,488.48,130.2Z" style="fill:#fff;stroke:#263238;stroke-linecap:round;stroke-linejoin:round"></path><path d="M537,99.54c-.54-10.86-9.23-22.26-17.91-25s-23-2.46-31.19,5.41a27.34,27.34,0,0,0-4.46,6.51l.39.55s21.17-2.72,23.07-2.45-9.77,12-7.87,13.58,8.69,3.25,9.23,4.61-3,7.06-.81,8.14,5.42,2.45,5.42,2.45c-.7-1.52,11.08,9.38,14,9.11C529,119.43,537.49,108.61,537,99.54Z" style="fill:#263238;stroke:#263238;stroke-linecap:round;stroke-linejoin:round"></path><path d="M510.2,114.18s3.5-9.75,7.57-9.21,6.24,6.24,4.88,11.4-7.29,9.48-8.92,8.94" style="fill:#b5b5b5;stroke:#263238;stroke-linecap:round;stroke-linejoin:round"></path><polygon points="502.06 140.65 511.29 134.4 506.67 151.37 502.06 140.65" style="fill:#263238;stroke:#263238;stroke-linecap:round;stroke-linejoin:round"></polygon><path d="M554.92,170.69,576.66,202s9.61,12.38,14.92,15.92,7.83,3,10.36,2,6.07-8.09,6.32-10.62-2.53-3-2-5.56,2-1,.75-4.55-6.82-4.55-6.82-4.55,1.26-5.81-.51-6.32a50.25,50.25,0,0,1-5-2l-22.24-45s-5.06-6.32-12.39-6.07a16,16,0,0,0-11.37,5.31" style="fill:#92E3A9;stroke:#263238;stroke-linecap:round;stroke-linejoin:round"></path><line x1="591.07" y1="197.23" x2="595.62" y2="191.92" style="fill:#fff;stroke:#263238;stroke-linecap:round;stroke-linejoin:round"></line><path d="M605.22,200.77s-7.83-2.79-11.62-2" style="fill:#fff;stroke:#263238;stroke-linecap:round;stroke-linejoin:round"></path><path d="M550.88,185.6l-6.82-16.68s-6.32-4.3-7.08-4.55-2.53,1.26-2.53,1.26-4.55-1.52-5.56.25a6.1,6.1,0,0,0-.76,3.54l1.52,2s-1.77,9.86-1.77,11.38,1.52,3.28,3.79,5.81,15.67,6.83,15.67,6.83,41.2,26.79,45,28,8.6-1,9.61-3.53,2.78-10.87-.25-15.42-14.92-8.09-17.19-8.85S550.88,185.6,550.88,185.6Z" style="fill:#b5b5b5;stroke:#263238;stroke-linecap:round;stroke-linejoin:round"></path></g><g id="freepik--character-1--inject-191"><path d="M93.72,250.89H415.41a8.67,8.67,0,0,1,8.67,8.67v88.33a0,0,0,0,1,0,0h-339a0,0,0,0,1,0,0V259.55A8.67,8.67,0,0,1,93.72,250.89Z" style="fill:#b5b5b5;stroke:#263238;stroke-linecap:round;stroke-linejoin:round"></path><polygon points="108.41 317.67 126.82 346.2 101.78 346.2 108.41 317.67" style="fill:#263238;stroke:#263238;stroke-linecap:round;stroke-linejoin:round"></polygon><rect x="85.06" y="339.28" width="339.02" height="31.21" style="fill:#b5b5b5;stroke:#263238;stroke-linecap:round;stroke-linejoin:round"></rect><rect x="77.85" y="444.95" width="15.85" height="11.05" style="fill:#263238;stroke:#263238;stroke-linecap:round;stroke-linejoin:round"></rect><rect x="417.83" y="444.95" width="15.85" height="11.05" style="fill:#263238;stroke:#263238;stroke-linecap:round;stroke-linejoin:round"></rect><rect x="85.06" y="370.03" width="339.02" height="79.92" style="fill:#b5b5b5;stroke:#263238;stroke-linecap:round;stroke-linejoin:round"></rect><path d="M411.39,310.19H442a8,8,0,0,1,8,8V449.95a0,0,0,0,1,0,0h-46.6a0,0,0,0,1,0,0V318.2A8,8,0,0,1,411.39,310.19Z" style="fill:#b5b5b5;stroke:#263238;stroke-linecap:round;stroke-linejoin:round"></path><path d="M69.82,310.19H100.4a8,8,0,0,1,8,8V449.95a0,0,0,0,1,0,0H61.81a0,0,0,0,1,0,0V318.2A8,8,0,0,1,69.82,310.19Z" style="fill:#b5b5b5;stroke:#263238;stroke-linecap:round;stroke-linejoin:round"></path><path d="M235.9,212s-17,2.24-22.63,11.5,9.07,43,12.24,52,11.07,16.27,11.07,16.27l-4.29,9.72s34.13,5.88,54,9.05,31.42.67,31.42.67-6.1-16.72-9.49-23.28-8.82-18.08-8.82-18.08,2.71-48.37-1.35-53.57-23.29-6.33-31.2-5.65S235.9,212,235.9,212Z" style="fill:#92E3A9;stroke:#263238;stroke-linecap:round;stroke-linejoin:round"></path><path d="M252.89,301.91c-1-.36-1.92-.75-2.86-1.18-4.18-1.93-14.53-5.94-23.08-2.93-11,3.86-18.73,48.15-20.21,58.84s-8.62,63.31-10.41,73.71-.29,16.35,2.08,23.19,7.14,11.88,11.3,10.4,4.75-5.65,4.75-15.16-5.05-15.75-5.05-22.29,3.86-16.05,4.16-16.94,19.91-43.1,26.16-57.66,6.53-12.48,6.53-12.48h23.19s-3.87-19-8.32-28.24C257.9,304.5,254.51,302.5,252.89,301.91Z" style="fill:#fff;stroke:#263238;stroke-linecap:round;stroke-linejoin:round"></path><path d="M246.26,339.41h23.19s-3.87-19-8.32-28.24c-3.23-6.67-6.62-8.67-8.24-9.26-1-.36-1.92-.75-2.86-1.18-4.18-1.93-14.53-5.94-23.08-2.93-11,3.86-18.73,48.15-20.21,58.84-.86,6.14-3.57,26.08-6.06,43.93A36.52,36.52,0,0,0,216,404.15c5.5-12,18.78-40.76,23.71-52.26C246,337.33,246.26,339.41,246.26,339.41Z" style="fill:#263238;stroke:#263238;stroke-linecap:round;stroke-linejoin:round"></path><path d="M209.71,463.94c4.16-1.49,5.83-.53,5.83-10,0-2.28-1.37-9.48-1.81-11.43-6.19,3.93-14.42,3.93-14.42,3.93a61.42,61.42,0,0,1-3.27-8.91,11.93,11.93,0,0,1-.35-2.06c-.59,7.43.76,12.47,2.72,18.11C200.79,460.37,205.55,465.42,209.71,463.94Z" style="fill:#263238;stroke:#263238;stroke-linecap:round;stroke-linejoin:round"></path><path d="M246.86,336.43A82.45,82.45,0,0,0,251,323.36" style="fill:none;stroke:#fff;stroke-linecap:round;stroke-linejoin:round"></path><path d="M317.73,311.22s-14.4-11.64-32.53-12.83-36.85,8.92-32.1,22.89c2.63,7.72,64.5,112.05,64.5,112.05s.29,8.91-3.27,14.56-8.33,11.29-11.6,14,.9,5.35,6.25,5.35,15.45-4.76,18.13-7.14,15.45-18.13,16.05-21.39-9.52-7.73-14.27-17.24-13.08-30.32-16.35-42.21c-3.11-11.3-13.07-39.53-13.07-39.53h16.94s6.24,1.19,6.54-10.4S317.73,311.22,317.73,311.22Z" style="fill:#fff;stroke:#263238;stroke-linecap:round;stroke-linejoin:round"></path><path d="M312.54,379.23c-3.11-11.3-13.07-39.53-13.07-39.53h16.94s6.24,1.19,6.54-10.4-5.22-18.08-5.22-18.08-14.4-11.64-32.53-12.83-36.85,8.92-32.1,22.89c1.91,5.6,35,62.09,53,92.65a51.85,51.85,0,0,0,15-10.28C317.69,395.06,314.35,385.79,312.54,379.23Z" style="fill:#263238;stroke:#263238;stroke-linecap:round;stroke-linejoin:round"></path><path d="M278.66,311.47s13.67,11.89,18.73,23.18" style="fill:none;stroke:#fff;stroke-linecap:round;stroke-linejoin:round"></path><path d="M335.64,430.2c-4.1,10.21-12.1,21.26-12.1,21.26l-9.57-3c-3.52,5.47-8.07,10.84-11.24,13.43s.9,5.35,6.25,5.35,15.45-4.76,18.13-7.14,15.45-18.13,16.05-21.39C343.53,436.63,339.72,434.12,335.64,430.2Z" style="fill:#263238;stroke:#263238;stroke-linecap:round;stroke-linejoin:round"></path><path d="M254.59,274s13.07,10.4,18.72,11.29" style="fill:none;stroke:#263238;stroke-linecap:round;stroke-linejoin:round"></path><path d="M255.18,277.88a127.6,127.6,0,0,0,11,6.84" style="fill:none;stroke:#263238;stroke-linecap:round;stroke-linejoin:round"></path><line x1="231.7" y1="231.82" x2="239.73" y2="255" style="fill:none;stroke:#263238;stroke-linecap:round;stroke-linejoin:round"></line><path d="M245.62,221.49s8.37,22.15,11.08,20.79,7.69-22.15,7.69-22.15Z" style="fill:#fff;stroke:#263238;stroke-linecap:round;stroke-linejoin:round"></path><path d="M228.42,155.37s-12.71,3.59-15.14,10.08,2.6,21.36,5.88,24.1a85.33,85.33,0,0,0,9.52,6.29l3.44,5.11s1.42,8.7,1.69,10.4-4.42,2.24-4.42,2.24a63.73,63.73,0,0,0,27.52,2.11c15.1-2.24,20.77-3.86,24.14-7.24s4.25-11.36,4.25-11.36-5.6,3.08-7.16-3.85,1.21-11.31,3.91-14.79,5-10.84.15-20.5S254,141.41,242.39,143.52,227.34,151.41,228.42,155.37Z" style="fill:#263238;stroke:#263238;stroke-linecap:round;stroke-linejoin:round"></path><path d="M232.61,170.34c-5.1,4.5-12.68,11.68-11.76,13.76,1.38,3.09,5.85,4.12,5.85,4.12" style="fill:none;stroke:#b5b5b5;stroke-linecap:round;stroke-linejoin:round"></path><path d="M237,166.56s-.67.55-1.75,1.47" style="fill:none;stroke:#b5b5b5;stroke-linecap:round;stroke-linejoin:round"></path><path d="M221.19,167.24l14.1-4.12s-4.06-6.58,3.79-8.26c11.91-2.54,29.59,6,36.4,12.21" style="fill:none;stroke:#b5b5b5;stroke-linecap:round;stroke-linejoin:round"></path><path d="M267.34,169.75a17.54,17.54,0,0,1,3,3" style="fill:none;stroke:#b5b5b5;stroke-linecap:round;stroke-linejoin:round"></path><path d="M240.11,164.49s14.6-2.12,24.7,3.58" style="fill:none;stroke:#b5b5b5;stroke-linecap:round;stroke-linejoin:round"></path><path d="M279.76,164c1.29,1.84,2,3.65,1.62,5.3" style="fill:none;stroke:#b5b5b5;stroke-linecap:round;stroke-linejoin:round"></path><path d="M259.37,148.67s11.64,6.08,18,12.56" style="fill:none;stroke:#b5b5b5;stroke-linecap:round;stroke-linejoin:round"></path><path d="M242.4,169.21s-13.08,20.23-13.06,21.41,7.29,16.84,9.3,19.88,10.63,11.9,19.18,12.7,14.73-7.19,16.78-19.49S269,177.44,269,177.44Z" style="fill:#fff;stroke:#263238;stroke-linecap:round;stroke-linejoin:round"></path><path d="M253.71,208.79s3.41,2.31,6.75,1.09" style="fill:none;stroke:#263238;stroke-linecap:round;stroke-linejoin:round"></path><path d="M246.86,184.4s-5.2,2.19-7,6.7" style="fill:none;stroke:#263238;stroke-linecap:round;stroke-linejoin:round"></path><path d="M249,193.66c.2,1.27-.22,2.4-.94,2.51s-1.48-.81-1.69-2.08.22-2.39.94-2.51S248.76,192.39,249,193.66Z" style="fill:#263238"></path><path d="M266.92,190.06c.21,1.26-.21,2.39-.94,2.51s-1.48-.82-1.68-2.09.11-1.66.84-1.78A1.43,1.43,0,0,1,266.92,190.06Z" style="fill:#263238"></path><path d="M260,181.18s4.72.67,7.45,3.88" style="fill:none;stroke:#263238;stroke-linecap:round;stroke-linejoin:round"></path><line x1="249.32" y1="190.73" x2="243.15" y2="194.69" style="fill:none;stroke:#263238;stroke-linecap:round;stroke-linejoin:round"></line><line x1="262.62" y1="187.81" x2="268.06" y2="189.21" style="fill:none;stroke:#263238;stroke-linecap:round;stroke-linejoin:round"></line><path d="M242.4,169.21s6.31,6.45,12.31,7.55a36.07,36.07,0,0,0,12.15-.18" style="fill:none;stroke:#263238;stroke-linecap:round;stroke-linejoin:round"></path><path d="M232.74,198.71s-4.52-3.7-5.09.14,2.91,6.35,4.95,7.39,4.92,2.95,4.92,2.95Z" style="fill:#fff;stroke:#263238;stroke-linecap:round;stroke-linejoin:round"></path><path d="M259.94,186.65s-1.17,1.88-.5,6,4.14,8.6,3.93,9.27-3.86,2.21-6,1.82" style="fill:none;stroke:#263238;stroke-linecap:round;stroke-linejoin:round"></path><path d="M224.91,202.07s-3.48,12.51-2.78,13.38,19.8,12.33,19.8,12.33-11.29,47.77-12.51,53,.06,7.95,1.05,10.6c2.09,5.59,11.12,10.26,12.68,8.16,1-1.32,7-3,8.68-14.77.57-4-1-56.28-.69-57.14a32.9,32.9,0,0,0,.69-7.65c-.17-1.73-7.06-3.6-7.06-3.6s1-3.87.81-4.39-5.21-4.51-5.91-4.51H239a28.42,28.42,0,0,0-2.61-1.74,2.77,2.77,0,0,0-2.6.17s-4-3.82-4.69-3.82h-.7A2.68,2.68,0,0,0,224.91,202.07Z" style="fill:#fff;stroke:#263238;stroke-linecap:round;stroke-linejoin:round"></path><path d="M239,207.46s-3.2,11.27-2.86,11.44" style="fill:none;stroke:#263238;stroke-linecap:round;stroke-linejoin:round"></path><path d="M233.77,205.89s-3.26,10.21-3.09,10.64" style="fill:none;stroke:#263238;stroke-linecap:round;stroke-linejoin:round"></path><path d="M229.08,202.07s-2.89,12.08-2.64,13.1" style="fill:none;stroke:#263238;stroke-linecap:round;stroke-linejoin:round"></path><path d="M245.23,214.75s-.71,2.11-1,2.11a17.37,17.37,0,0,1-2.55-1.35l.76-1.79" style="fill:none;stroke:#263238;stroke-linecap:round;stroke-linejoin:round"></path><path d="M218.73,313.48l-5.94-1.13a2.91,2.91,0,0,0-3.26,1.82l-9.13,24.11a2.9,2.9,0,0,0,2.09,3.86l11,2.4a2.88,2.88,0,0,0,3.35-1.87l8.51-24.33a2.9,2.9,0,0,0-2.08-3.78Z" style="fill:#fff;stroke:#263238;stroke-linecap:round;stroke-linejoin:round"></path><path d="M214.48,341.18a1.53,1.53,0,1,1-1.5-1.27A1.4,1.4,0,0,1,214.48,341.18Z" style="fill:#92E3A9;stroke:#263238;stroke-linecap:round;stroke-linejoin:round"></path><path d="M206.48,335.32a1.51,1.51,0,0,1-3,0,1.51,1.51,0,0,1,3,0Z" style="fill:#fff;stroke:#263238;stroke-linecap:round;stroke-linejoin:round"></path><ellipse cx="210.15" cy="336.22" rx="1.51" ry="1.43" style="fill:#fff;stroke:#263238;stroke-linecap:round;stroke-linejoin:round"></ellipse><path d="M216.62,337.38a1.51,1.51,0,1,1-1.5-1.43A1.46,1.46,0,0,1,216.62,337.38Z" style="fill:#fff;stroke:#263238;stroke-linecap:round;stroke-linejoin:round"></path><path d="M207.87,330.91a1.51,1.51,0,1,1-1.5-1.43A1.46,1.46,0,0,1,207.87,330.91Z" style="fill:#fff;stroke:#263238;stroke-linecap:round;stroke-linejoin:round"></path><path d="M213,331.81a1.51,1.51,0,1,1-1.51-1.43A1.47,1.47,0,0,1,213,331.81Z" style="fill:#fff;stroke:#263238;stroke-linecap:round;stroke-linejoin:round"></path><path d="M218,333a1.51,1.51,0,1,1-1.5-1.42A1.47,1.47,0,0,1,218,333Z" style="fill:#fff;stroke:#263238;stroke-linecap:round;stroke-linejoin:round"></path><path d="M209.44,326.56a1.48,1.48,0,1,1-1.47-1.4A1.44,1.44,0,0,1,209.44,326.56Z" style="fill:#fff;stroke:#263238;stroke-linecap:round;stroke-linejoin:round"></path><path d="M214.52,327.44A1.48,1.48,0,1,1,213,326,1.44,1.44,0,0,1,214.52,327.44Z" style="fill:#fff;stroke:#263238;stroke-linecap:round;stroke-linejoin:round"></path><path d="M219.4,328.58a1.48,1.48,0,1,1-1.48-1.4A1.44,1.44,0,0,1,219.4,328.58Z" style="fill:#fff;stroke:#263238;stroke-linecap:round;stroke-linejoin:round"></path><path d="M211.15,322.25a1.44,1.44,0,1,1-1.43-1.35A1.4,1.4,0,0,1,211.15,322.25Z" style="fill:#fff;stroke:#263238;stroke-linecap:round;stroke-linejoin:round"></path><ellipse cx="214.63" cy="323.11" rx="1.43" ry="1.36" style="fill:#fff;stroke:#263238;stroke-linecap:round;stroke-linejoin:round"></ellipse><path d="M220.79,324.21a1.43,1.43,0,1,1-1.43-1.36A1.4,1.4,0,0,1,220.79,324.21Z" style="fill:#fff;stroke:#263238;stroke-linecap:round;stroke-linejoin:round"></path><ellipse cx="211.06" cy="317.82" rx="1.44" ry="1.36" style="fill:#fff;stroke:#263238;stroke-linecap:round;stroke-linejoin:round"></ellipse><path d="M217.43,318.69a1.44,1.44,0,1,1-1.44-1.37A1.4,1.4,0,0,1,217.43,318.69Z" style="fill:#fff;stroke:#263238;stroke-linecap:round;stroke-linejoin:round"></path><path d="M222.18,319.79a1.44,1.44,0,1,1-1.44-1.36A1.41,1.41,0,0,1,222.18,319.79Z" style="fill:#fff;stroke:#263238;stroke-linecap:round;stroke-linejoin:round"></path><path d="M282.23,232.41l-2.25,56S238.62,305.57,237,306s-12.21,0-13.79,0-2.72,1.58-3.17,2.93a33.75,33.75,0,0,1-3.39,7.46c-1.58,2.26-2.49,3.39-.68,3.85s4.3-1.13,5.2-1.81,4.52-5.65,5.2-5.88-6.1,19.67-6.1,19.67,2-.91,4.29-2,5.2-2.94,5.2-2.94a20.32,20.32,0,0,0,6.1-4.07c2.72-2.71,5-7.23,5.66-7.45s52.21-13.12,52.21-13.12,4.3-2.93,5.2-5.65,7.23-58.77,7.69-64.42-1.59-15.59-7-17.86-13.34-.45-13.34-.45" style="fill:#92E3A9;stroke:#263238;stroke-linecap:round;stroke-linejoin:round"></path><path d="M275.29,290.34c-10.88,4.51-37,15.33-38.25,15.69-1.59.45-12.21,0-13.79,0s-2.72,1.58-3.17,2.93a33.75,33.75,0,0,1-3.39,7.46c-1.58,2.26-2.49,3.39-.68,3.85s4.3-1.13,5.2-1.81,4.52-5.65,5.2-5.88-6.1,19.67-6.1,19.67,2-.91,4.29-2,5.2-2.94,5.2-2.94a20.32,20.32,0,0,0,6.1-4.07c2.72-2.71,5-7.23,5.66-7.45.52-.18,31.55-7.95,45.52-11.44C283.7,295.78,278.5,292,275.29,290.34Z" style="fill:#fff;stroke:#263238;stroke-linecap:round;stroke-linejoin:round"></path><path d="M232.37,268.26c-1.46,6.2-2.6,11-3,12.5-1.21,5.21.06,7.95,1.05,10.6,2.09,5.59,11.12,10.26,12.68,8.16,1-1.32,7-3,8.68-14.77.15-1,.15-5.33.07-11.12C242.32,275.41,236.06,271.84,232.37,268.26Z" style="fill:#92E3A9;stroke:#263238;stroke-linecap:round;stroke-linejoin:round"></path></g></svg>
